<svg width="200" height="379" viewBox="0 0 200 379" fill="none" xmlns="http://www.w3.org/2000/svg">
<rect x="1.64355" y="32.641" width="196.179" height="308.925" fill="white"/>
<path d="M1.64355 29.2586V346.076" stroke="#2B2B2B" stroke-width="3"/>
<path d="M197.823 30.3861V347.204" stroke="#2B2B2B" stroke-width="3"/>
<rect x="1.64355" y="330.292" width="196.179" height="15.7845" fill="#2B2B2B"/>
<path d="M18.732 1.74425C32.9555 -1.19582 167.534 0.124959 175.193 1.74425C182.851 3.36355 198.275 15.2418 198.169 33H1.22593C0.641301 19.497 4.5085 4.68432 18.732 1.74425Z" fill="#2B2B2B"/>
<path d="M181.631 1.59969C166.679 -2.54499 35.3235 3.85032 25.17 1.59969C15.0164 -0.650945 -1.33008 7.99995 0.169922 32.8554H199.137C200.285 21.5002 196.582 5.74437 181.631 1.59969Z" fill="#2B2B2B"/>
<path d="M17.5353 376.023C35.4675 378.179 157.234 379.9 178.668 376.023C200.103 372.147 199.835 360.543 199.17 339.311H0.169777C-0.432313 355.172 -0.396915 373.868 17.5353 376.023Z" fill="#2B2B2B"/>
<rect x="81.0662" y="346.576" width="39.5887" height="17.0394" rx="8.51972" fill="#2B2B2B" stroke="white"/>
<circle cx="65.909" cy="20.2389" r="2.8824" fill="white" stroke="white"/>
<circle cx="135.812" cy="20.2389" r="2.8824" fill="white" stroke="white"/>
<line x1="80.5662" y1="20.8664" x2="121.155" y2="20.8664" stroke="white"/>
<circle cx="100.67" cy="145.5" r="61" stroke="#8FE281" stroke-width="3"/>
<path d="M24.213 241V236.608L20.001 227.752H21.495L24.951 235.168L28.407 227.752H29.847L25.653 236.608V241H24.213ZM34.4163 241.108C33.7203 241.108 33.1083 241.036 32.5803 240.892C32.0643 240.748 31.6323 240.496 31.2843 240.136C30.9363 239.776 30.6783 239.278 30.5103 238.642C30.3423 237.994 30.2583 237.172 30.2583 236.176C30.2583 235.168 30.3423 234.346 30.5103 233.71C30.6783 233.062 30.9363 232.564 31.2843 232.216C31.6323 231.856 32.0643 231.61 32.5803 231.478C33.1083 231.334 33.7203 231.262 34.4163 231.262C35.1123 231.262 35.7183 231.334 36.2343 231.478C36.7623 231.622 37.2003 231.874 37.5483 232.234C37.8963 232.582 38.1543 233.08 38.3223 233.728C38.5023 234.364 38.5923 235.18 38.5923 236.176C38.5923 237.184 38.5023 238.012 38.3223 238.66C38.1543 239.296 37.8963 239.794 37.5483 240.154C37.2123 240.502 36.7803 240.748 36.2523 240.892C35.7243 241.036 35.1123 241.108 34.4163 241.108ZM34.4163 239.938C34.8603 239.938 35.2503 239.896 35.5863 239.812C35.9343 239.728 36.2223 239.56 36.4503 239.308C36.6783 239.056 36.8523 238.678 36.9723 238.174C37.0923 237.67 37.1523 237.004 37.1523 236.176C37.1523 235.336 37.0923 234.67 36.9723 234.178C36.8523 233.686 36.6783 233.314 36.4503 233.062C36.2223 232.81 35.9343 232.642 35.5863 232.558C35.2503 232.474 34.8603 232.432 34.4163 232.432C33.9603 232.432 33.5643 232.474 33.2283 232.558C32.8923 232.642 32.6103 232.81 32.3823 233.062C32.1543 233.314 31.9803 233.686 31.8603 234.178C31.7403 234.67 31.6803 235.336 31.6803 236.176C31.6803 237.004 31.7403 237.67 31.8603 238.174C31.9803 238.678 32.1543 239.056 32.3823 239.308C32.6103 239.56 32.8923 239.728 33.2283 239.812C33.5643 239.896 33.9603 239.938 34.4163 239.938ZM43.851 241.108C42.927 241.108 42.213 240.868 41.709 240.388C41.217 239.908 40.971 239.164 40.971 238.156V231.388H42.393V237.796C42.393 238.6 42.573 239.146 42.933 239.434C43.305 239.71 43.821 239.848 44.481 239.848C45.045 239.848 45.561 239.77 46.029 239.614C46.497 239.446 46.977 239.218 47.469 238.93V231.388H48.891V241H47.775L47.469 239.938C46.977 240.25 46.419 240.526 45.795 240.766C45.183 240.994 44.535 241.108 43.851 241.108ZM51.571 241V231.388H52.651L52.993 233.062C53.425 232.546 53.905 232.12 54.433 231.784C54.973 231.448 55.591 231.28 56.287 231.28C56.455 231.28 56.611 231.286 56.755 231.298C56.911 231.31 57.055 231.334 57.187 231.37V232.828C57.031 232.804 56.863 232.786 56.683 232.774C56.503 232.75 56.323 232.738 56.143 232.738C55.699 232.738 55.303 232.792 54.955 232.9C54.607 233.008 54.277 233.17 53.965 233.386C53.653 233.602 53.329 233.866 52.993 234.178V241H51.571ZM67.6205 241.108C67.3565 241.108 67.0385 241.096 66.6665 241.072C66.3065 241.06 65.9345 241.036 65.5505 241C65.1665 240.976 64.8005 240.946 64.4525 240.91C64.1165 240.874 63.8345 240.832 63.6065 240.784V239.686C63.9065 239.71 64.2725 239.734 64.7045 239.758C65.1365 239.782 65.5985 239.8 66.0905 239.812C66.5945 239.824 67.0865 239.83 67.5665 239.83C68.1065 239.83 68.5925 239.776 69.0245 239.668C69.4565 239.56 69.7985 239.362 70.0505 239.074C70.3145 238.786 70.4465 238.372 70.4465 237.832V236.932C70.4465 236.32 70.2905 235.858 69.9785 235.546C69.6665 235.222 69.1625 235.06 68.4665 235.06H67.0445C65.9525 235.06 65.0945 234.82 64.4705 234.34C63.8585 233.86 63.5525 233.032 63.5525 231.856V231.1C63.5525 229.852 63.8885 228.964 64.5605 228.436C65.2325 227.908 66.1805 227.644 67.4045 227.644C67.7885 227.644 68.2205 227.668 68.7005 227.716C69.1805 227.752 69.6425 227.8 70.0865 227.86C70.5425 227.908 70.9205 227.962 71.2205 228.022V229.12C70.6925 229.072 70.0925 229.03 69.4205 228.994C68.7605 228.958 68.1365 228.94 67.5485 228.94C67.0085 228.94 66.5405 229.006 66.1445 229.138C65.7485 229.258 65.4425 229.48 65.2265 229.804C65.0225 230.116 64.9205 230.566 64.9205 231.154V231.766C64.9205 232.498 65.1125 233.002 65.4965 233.278C65.8805 233.554 66.4145 233.692 67.0985 233.692H68.6285C69.3605 233.692 69.9605 233.824 70.4285 234.088C70.8965 234.352 71.2445 234.718 71.4725 235.186C71.7005 235.642 71.8145 236.17 71.8145 236.77V237.796C71.8145 238.684 71.6225 239.368 71.2385 239.848C70.8665 240.328 70.3625 240.658 69.7265 240.838C69.1025 241.018 68.4005 241.108 67.6205 241.108ZM74.2468 245.266V231.388H75.3988L75.6688 232.378C75.8848 232.222 76.1608 232.06 76.4968 231.892C76.8448 231.712 77.2168 231.562 77.6128 231.442C78.0208 231.322 78.4228 231.262 78.8188 231.262C79.4428 231.262 79.9708 231.4 80.4028 231.676C80.8468 231.94 81.2068 232.3 81.4828 232.756C81.7588 233.212 81.9568 233.734 82.0768 234.322C82.1968 234.91 82.2568 235.528 82.2568 236.176C82.2568 237.256 82.1308 238.168 81.8788 238.912C81.6388 239.644 81.2668 240.196 80.7628 240.568C80.2588 240.94 79.6108 241.126 78.8188 241.126C78.2788 241.126 77.7328 241.042 77.1808 240.874C76.6408 240.694 76.1368 240.472 75.6688 240.208V245.266H74.2468ZM78.4228 239.92C78.8788 239.92 79.2868 239.806 79.6468 239.578C80.0068 239.35 80.2948 238.966 80.5108 238.426C80.7268 237.874 80.8348 237.124 80.8348 236.176C80.8348 235.276 80.7208 234.556 80.4928 234.016C80.2648 233.464 79.9708 233.068 79.6108 232.828C79.2508 232.576 78.8548 232.45 78.4228 232.45C77.8708 232.45 77.3608 232.54 76.8928 232.72C76.4368 232.888 76.0288 233.068 75.6688 233.26V239.146C76.0888 239.374 76.5328 239.56 77.0008 239.704C77.4808 239.848 77.9548 239.92 78.4228 239.92ZM88.469 241.108C87.773 241.108 87.161 241.036 86.633 240.892C86.117 240.748 85.685 240.496 85.337 240.136C84.989 239.776 84.731 239.278 84.563 238.642C84.395 237.994 84.311 237.172 84.311 236.176C84.311 235.168 84.395 234.346 84.563 233.71C84.731 233.062 84.989 232.564 85.337 232.216C85.685 231.856 86.117 231.61 86.633 231.478C87.161 231.334 87.773 231.262 88.469 231.262C89.165 231.262 89.771 231.334 90.287 231.478C90.815 231.622 91.253 231.874 91.601 232.234C91.949 232.582 92.207 233.08 92.375 233.728C92.555 234.364 92.645 235.18 92.645 236.176C92.645 237.184 92.555 238.012 92.375 238.66C92.207 239.296 91.949 239.794 91.601 240.154C91.265 240.502 90.833 240.748 90.305 240.892C89.777 241.036 89.165 241.108 88.469 241.108ZM88.469 239.938C88.913 239.938 89.303 239.896 89.639 239.812C89.987 239.728 90.275 239.56 90.503 239.308C90.731 239.056 90.905 238.678 91.025 238.174C91.145 237.67 91.205 237.004 91.205 236.176C91.205 235.336 91.145 234.67 91.025 234.178C90.905 233.686 90.731 233.314 90.503 233.062C90.275 232.81 89.987 232.642 89.639 232.558C89.303 232.474 88.913 232.432 88.469 232.432C88.013 232.432 87.617 232.474 87.281 232.558C86.945 232.642 86.663 232.81 86.435 233.062C86.207 233.314 86.033 233.686 85.913 234.178C85.793 234.67 85.733 235.336 85.733 236.176C85.733 237.004 85.793 237.67 85.913 238.174C86.033 238.678 86.207 239.056 86.435 239.308C86.663 239.56 86.945 239.728 87.281 239.812C87.617 239.896 88.013 239.938 88.469 239.938ZM98.2277 241C97.6037 241 97.0877 240.898 96.6797 240.694C96.2717 240.49 95.9717 240.16 95.7797 239.704C95.5877 239.248 95.4977 238.642 95.5097 237.886L95.5637 232.558H94.0337V231.64L95.5817 231.388L95.8157 228.706H96.9137V231.388H99.6857V232.558H96.9137V237.886C96.9137 238.306 96.9557 238.642 97.0397 238.894C97.1357 239.146 97.2557 239.338 97.3997 239.47C97.5557 239.602 97.7177 239.698 97.8857 239.758C98.0537 239.806 98.2157 239.836 98.3717 239.848L99.5417 239.956V241H98.2277ZM106.521 241V227.752H107.961V233.89H114.585V227.752H116.007V241H114.585V235.186H107.961V241H106.521ZM120.644 241.108C119.936 241.108 119.354 240.898 118.898 240.478C118.442 240.058 118.214 239.464 118.214 238.696V238.012C118.214 237.256 118.46 236.644 118.952 236.176C119.456 235.708 120.212 235.474 121.22 235.474H124.478V234.286C124.478 233.89 124.406 233.554 124.262 233.278C124.13 232.99 123.884 232.768 123.524 232.612C123.176 232.456 122.666 232.378 121.994 232.378H119.006V231.532C119.426 231.46 119.912 231.394 120.464 231.334C121.028 231.274 121.688 231.244 122.444 231.244C123.224 231.232 123.872 231.328 124.388 231.532C124.904 231.736 125.282 232.06 125.522 232.504C125.774 232.936 125.9 233.506 125.9 234.214V241H124.802L124.532 239.902C124.484 239.95 124.334 240.034 124.082 240.154C123.842 240.274 123.53 240.412 123.146 240.568C122.774 240.712 122.366 240.838 121.922 240.946C121.49 241.054 121.064 241.108 120.644 241.108ZM121.238 240.046C121.454 240.058 121.7 240.034 121.976 239.974C122.252 239.914 122.534 239.848 122.822 239.776C123.11 239.692 123.374 239.608 123.614 239.524C123.866 239.44 124.07 239.368 124.226 239.308C124.382 239.248 124.466 239.218 124.478 239.218V236.194L121.544 236.32C120.86 236.344 120.368 236.512 120.068 236.824C119.78 237.136 119.636 237.538 119.636 238.03V238.462C119.636 238.846 119.714 239.158 119.87 239.398C120.038 239.626 120.242 239.788 120.482 239.884C120.734 239.98 120.986 240.034 121.238 240.046ZM131.893 241.108C131.653 241.108 131.359 241.102 131.011 241.09C130.663 241.078 130.297 241.06 129.913 241.036C129.541 241.012 129.199 240.988 128.887 240.964C128.587 240.928 128.353 240.892 128.185 240.856V239.992H132.127C132.523 239.992 132.865 239.962 133.153 239.902C133.441 239.842 133.663 239.71 133.819 239.506C133.987 239.302 134.071 238.996 134.071 238.588V238.156C134.071 237.736 133.933 237.412 133.657 237.184C133.381 236.944 132.937 236.824 132.325 236.824H130.975C130.411 236.824 129.907 236.752 129.463 236.608C129.031 236.464 128.695 236.218 128.455 235.87C128.215 235.522 128.095 235.042 128.095 234.43V233.926C128.095 233.326 128.209 232.834 128.437 232.45C128.677 232.066 129.043 231.778 129.535 231.586C130.039 231.394 130.687 231.298 131.479 231.298C131.815 231.298 132.199 231.31 132.631 231.334C133.075 231.358 133.507 231.394 133.927 231.442C134.347 231.478 134.689 231.52 134.953 231.568V232.432H131.245C130.633 232.432 130.159 232.534 129.823 232.738C129.499 232.942 129.337 233.338 129.337 233.926V234.322C129.337 234.694 129.415 234.976 129.571 235.168C129.727 235.348 129.943 235.468 130.219 235.528C130.507 235.588 130.837 235.618 131.209 235.618H132.577C133.453 235.618 134.131 235.822 134.611 236.23C135.091 236.638 135.331 237.226 135.331 237.994V238.66C135.331 239.308 135.181 239.812 134.881 240.172C134.593 240.52 134.191 240.766 133.675 240.91C133.171 241.042 132.577 241.108 131.893 241.108ZM142.45 241V227.752H147.238C148.378 227.752 149.23 228.034 149.794 228.598C150.37 229.162 150.658 230.014 150.658 231.154C150.658 231.706 150.574 232.186 150.406 232.594C150.238 233.002 150.01 233.338 149.722 233.602C149.446 233.854 149.134 234.028 148.786 234.124C149.026 234.184 149.278 234.286 149.542 234.43C149.818 234.562 150.076 234.754 150.316 235.006C150.556 235.258 150.748 235.576 150.892 235.96C151.048 236.344 151.126 236.8 151.126 237.328C151.126 238.264 150.976 239.002 150.676 239.542C150.376 240.07 149.95 240.448 149.398 240.676C148.846 240.892 148.186 241 147.418 241H142.45ZM143.89 239.722H147.382C147.862 239.722 148.276 239.65 148.624 239.506C148.984 239.35 149.26 239.086 149.452 238.714C149.656 238.33 149.758 237.79 149.758 237.094C149.758 236.602 149.65 236.182 149.434 235.834C149.23 235.486 148.948 235.222 148.588 235.042C148.228 234.85 147.826 234.754 147.382 234.754H143.89V239.722ZM143.89 233.62H147.328C147.892 233.62 148.354 233.416 148.714 233.008C149.086 232.6 149.278 232.048 149.29 231.352C149.314 230.5 149.128 229.906 148.732 229.57C148.348 229.222 147.85 229.048 147.238 229.048H143.89V233.62ZM156.95 241.108C155.942 241.108 155.144 240.958 154.556 240.658C153.98 240.358 153.566 239.848 153.314 239.128C153.062 238.408 152.936 237.424 152.936 236.176C152.936 234.904 153.062 233.914 153.314 233.206C153.578 232.486 154.004 231.982 154.592 231.694C155.18 231.406 155.972 231.262 156.968 231.262C157.82 231.262 158.51 231.358 159.038 231.55C159.578 231.742 159.974 232.072 160.226 232.54C160.49 232.996 160.622 233.632 160.622 234.448C160.622 235.012 160.508 235.468 160.28 235.816C160.064 236.152 159.746 236.398 159.326 236.554C158.918 236.698 158.432 236.77 157.868 236.77H154.358C154.37 237.55 154.454 238.18 154.61 238.66C154.766 239.128 155.048 239.47 155.456 239.686C155.876 239.89 156.488 239.992 157.292 239.992H160.388V240.856C159.836 240.928 159.296 240.988 158.768 241.036C158.24 241.084 157.634 241.108 156.95 241.108ZM154.34 235.834H157.76C158.3 235.834 158.696 235.738 158.948 235.546C159.212 235.342 159.344 234.982 159.344 234.466C159.344 233.914 159.26 233.488 159.092 233.188C158.936 232.876 158.684 232.66 158.336 232.54C158 232.408 157.544 232.342 156.968 232.342C156.296 232.342 155.768 232.444 155.384 232.648C155 232.84 154.73 233.188 154.574 233.692C154.418 234.196 154.34 234.91 154.34 235.834ZM166.688 241.108C165.68 241.108 164.882 240.958 164.294 240.658C163.718 240.358 163.304 239.848 163.052 239.128C162.8 238.408 162.674 237.424 162.674 236.176C162.674 234.904 162.8 233.914 163.052 233.206C163.316 232.486 163.742 231.982 164.33 231.694C164.918 231.406 165.71 231.262 166.706 231.262C167.558 231.262 168.248 231.358 168.776 231.55C169.316 231.742 169.712 232.072 169.964 232.54C170.228 232.996 170.36 233.632 170.36 234.448C170.36 235.012 170.246 235.468 170.018 235.816C169.802 236.152 169.484 236.398 169.064 236.554C168.656 236.698 168.17 236.77 167.606 236.77H164.096C164.108 237.55 164.192 238.18 164.348 238.66C164.504 239.128 164.786 239.47 165.194 239.686C165.614 239.89 166.226 239.992 167.03 239.992H170.126V240.856C169.574 240.928 169.034 240.988 168.506 241.036C167.978 241.084 167.372 241.108 166.688 241.108ZM164.078 235.834H167.498C168.038 235.834 168.434 235.738 168.686 235.546C168.95 235.342 169.082 234.982 169.082 234.466C169.082 233.914 168.998 233.488 168.83 233.188C168.674 232.876 168.422 232.66 168.074 232.54C167.738 232.408 167.282 232.342 166.706 232.342C166.034 232.342 165.506 232.444 165.122 232.648C164.738 232.84 164.468 233.188 164.312 233.692C164.156 234.196 164.078 234.91 164.078 235.834ZM172.755 241V231.388H173.871L174.177 232.45C174.633 232.126 175.167 231.844 175.779 231.604C176.391 231.352 177.027 231.226 177.687 231.226C178.395 231.226 178.965 231.376 179.397 231.676C179.829 231.976 180.147 232.372 180.351 232.864C180.555 233.356 180.657 233.89 180.657 234.466V241H179.235V234.628C179.235 234.22 179.151 233.86 178.983 233.548C178.827 233.224 178.599 232.972 178.299 232.792C178.011 232.612 177.651 232.522 177.219 232.522C176.823 232.522 176.451 232.564 176.103 232.648C175.767 232.72 175.443 232.828 175.131 232.972C174.831 233.104 174.513 233.266 174.177 233.458V241H172.755ZM64.0255 270V256.752H69.2455C69.6775 256.752 70.0975 256.806 70.5055 256.914C70.9135 257.01 71.2795 257.196 71.6035 257.472C71.9395 257.748 72.2035 258.144 72.3955 258.66C72.5875 259.164 72.6835 259.83 72.6835 260.658C72.6835 261.378 72.6055 261.972 72.4495 262.44C72.2935 262.896 72.0895 263.262 71.8375 263.538C71.5855 263.802 71.3095 264 71.0095 264.132C70.7215 264.252 70.4395 264.336 70.1635 264.384L72.8815 270H71.4235L68.8495 264.582C68.6575 264.582 68.4175 264.576 68.1295 264.564C67.8415 264.552 67.5355 264.546 67.2115 264.546C66.8875 264.546 66.5695 264.54 66.2575 264.528C65.9575 264.516 65.6935 264.51 65.4655 264.51V270H64.0255ZM65.4655 263.412H69.0295C69.3415 263.412 69.6295 263.376 69.8935 263.304C70.1575 263.232 70.3915 263.1 70.5955 262.908C70.7995 262.704 70.9615 262.422 71.0815 262.062C71.2015 261.702 71.2615 261.234 71.2615 260.658C71.2615 260.106 71.2015 259.662 71.0815 259.326C70.9615 258.978 70.7935 258.714 70.5775 258.534C70.3735 258.342 70.1395 258.216 69.8755 258.156C69.6115 258.084 69.3295 258.048 69.0295 258.048H65.4655V263.412ZM78.4549 270.108C77.4469 270.108 76.6489 269.958 76.0609 269.658C75.4849 269.358 75.0709 268.848 74.8189 268.128C74.5669 267.408 74.4409 266.424 74.4409 265.176C74.4409 263.904 74.5669 262.914 74.8189 262.206C75.0829 261.486 75.5089 260.982 76.0969 260.694C76.6849 260.406 77.4769 260.262 78.4729 260.262C79.3249 260.262 80.0149 260.358 80.5429 260.55C81.0829 260.742 81.4789 261.072 81.7309 261.54C81.9949 261.996 82.1269 262.632 82.1269 263.448C82.1269 264.012 82.0129 264.468 81.7849 264.816C81.5689 265.152 81.2509 265.398 80.8309 265.554C80.4229 265.698 79.9369 265.77 79.3729 265.77H75.8629C75.8749 266.55 75.9589 267.18 76.1149 267.66C76.2709 268.128 76.5529 268.47 76.9609 268.686C77.3809 268.89 77.9929 268.992 78.7969 268.992H81.8929V269.856C81.3409 269.928 80.8009 269.988 80.2729 270.036C79.7449 270.084 79.1389 270.108 78.4549 270.108ZM75.8449 264.834H79.2649C79.8049 264.834 80.2009 264.738 80.4529 264.546C80.7169 264.342 80.8489 263.982 80.8489 263.466C80.8489 262.914 80.7649 262.488 80.5969 262.188C80.4409 261.876 80.1889 261.66 79.8409 261.54C79.5049 261.408 79.0489 261.342 78.4729 261.342C77.8009 261.342 77.2729 261.444 76.8889 261.648C76.5049 261.84 76.2349 262.188 76.0789 262.692C75.9229 263.196 75.8449 263.91 75.8449 264.834ZM87.8332 270.108C87.5932 270.108 87.2992 270.102 86.9512 270.09C86.6032 270.078 86.2372 270.06 85.8532 270.036C85.4812 270.012 85.1392 269.988 84.8272 269.964C84.5272 269.928 84.2932 269.892 84.1252 269.856V268.992H88.0672C88.4632 268.992 88.8052 268.962 89.0932 268.902C89.3812 268.842 89.6032 268.71 89.7592 268.506C89.9272 268.302 90.0112 267.996 90.0112 267.588V267.156C90.0112 266.736 89.8732 266.412 89.5972 266.184C89.3212 265.944 88.8772 265.824 88.2652 265.824H86.9152C86.3512 265.824 85.8472 265.752 85.4032 265.608C84.9712 265.464 84.6352 265.218 84.3952 264.87C84.1552 264.522 84.0352 264.042 84.0352 263.43V262.926C84.0352 262.326 84.1492 261.834 84.3772 261.45C84.6172 261.066 84.9832 260.778 85.4752 260.586C85.9792 260.394 86.6272 260.298 87.4192 260.298C87.7552 260.298 88.1392 260.31 88.5712 260.334C89.0152 260.358 89.4472 260.394 89.8672 260.442C90.2872 260.478 90.6292 260.52 90.8932 260.568V261.432H87.1852C86.5732 261.432 86.0992 261.534 85.7632 261.738C85.4392 261.942 85.2772 262.338 85.2772 262.926V263.322C85.2772 263.694 85.3552 263.976 85.5112 264.168C85.6672 264.348 85.8832 264.468 86.1592 264.528C86.4472 264.588 86.7772 264.618 87.1492 264.618H88.5172C89.3932 264.618 90.0712 264.822 90.5512 265.23C91.0312 265.638 91.2712 266.226 91.2712 266.994V267.66C91.2712 268.308 91.1212 268.812 90.8212 269.172C90.5332 269.52 90.1312 269.766 89.6152 269.91C89.1112 270.042 88.5172 270.108 87.8332 270.108ZM97.1932 270.108C96.1852 270.108 95.3872 269.958 94.7992 269.658C94.2232 269.358 93.8092 268.848 93.5572 268.128C93.3052 267.408 93.1792 266.424 93.1792 265.176C93.1792 263.904 93.3052 262.914 93.5572 262.206C93.8212 261.486 94.2472 260.982 94.8352 260.694C95.4232 260.406 96.2152 260.262 97.2112 260.262C98.0632 260.262 98.7532 260.358 99.2812 260.55C99.8212 260.742 100.217 261.072 100.469 261.54C100.733 261.996 100.865 262.632 100.865 263.448C100.865 264.012 100.751 264.468 100.523 264.816C100.307 265.152 99.9892 265.398 99.5692 265.554C99.1612 265.698 98.6752 265.77 98.1112 265.77H94.6012C94.6132 266.55 94.6972 267.18 94.8532 267.66C95.0092 268.128 95.2912 268.47 95.6992 268.686C96.1192 268.89 96.7312 268.992 97.5352 268.992H100.631V269.856C100.079 269.928 99.5392 269.988 99.0112 270.036C98.4832 270.084 97.8772 270.108 97.1932 270.108ZM94.5832 264.834H98.0032C98.5432 264.834 98.9392 264.738 99.1912 264.546C99.4552 264.342 99.5872 263.982 99.5872 263.466C99.5872 262.914 99.5032 262.488 99.3352 262.188C99.1792 261.876 98.9272 261.66 98.5792 261.54C98.2432 261.408 97.7872 261.342 97.2112 261.342C96.5392 261.342 96.0112 261.444 95.6272 261.648C95.2432 261.84 94.9732 262.188 94.8172 262.692C94.6612 263.196 94.5832 263.91 94.5832 264.834ZM103.259 270V260.388H104.339L104.681 262.062C105.113 261.546 105.593 261.12 106.121 260.784C106.661 260.448 107.279 260.28 107.975 260.28C108.143 260.28 108.299 260.286 108.443 260.298C108.599 260.31 108.743 260.334 108.875 260.37V261.828C108.719 261.804 108.551 261.786 108.371 261.774C108.191 261.75 108.011 261.738 107.831 261.738C107.387 261.738 106.991 261.792 106.643 261.9C106.295 262.008 105.965 262.17 105.653 262.386C105.341 262.602 105.017 262.866 104.681 263.178V270H103.259ZM113.269 270L109.651 260.388H111.109L114.097 268.668L117.175 260.388H118.615L114.889 270H113.269ZM123.648 270.108C122.64 270.108 121.842 269.958 121.254 269.658C120.678 269.358 120.264 268.848 120.012 268.128C119.76 267.408 119.634 266.424 119.634 265.176C119.634 263.904 119.76 262.914 120.012 262.206C120.276 261.486 120.702 260.982 121.29 260.694C121.878 260.406 122.67 260.262 123.666 260.262C124.518 260.262 125.208 260.358 125.736 260.55C126.276 260.742 126.672 261.072 126.924 261.54C127.188 261.996 127.32 262.632 127.32 263.448C127.32 264.012 127.206 264.468 126.978 264.816C126.762 265.152 126.444 265.398 126.024 265.554C125.616 265.698 125.13 265.77 124.566 265.77H121.056C121.068 266.55 121.152 267.18 121.308 267.66C121.464 268.128 121.746 268.47 122.154 268.686C122.574 268.89 123.186 268.992 123.99 268.992H127.086V269.856C126.534 269.928 125.994 269.988 125.466 270.036C124.938 270.084 124.332 270.108 123.648 270.108ZM121.038 264.834H124.458C124.998 264.834 125.394 264.738 125.646 264.546C125.91 264.342 126.042 263.982 126.042 263.466C126.042 262.914 125.958 262.488 125.79 262.188C125.634 261.876 125.382 261.66 125.034 261.54C124.698 261.408 124.242 261.342 123.666 261.342C122.994 261.342 122.466 261.444 122.082 261.648C121.698 261.84 121.428 262.188 121.272 262.692C121.116 263.196 121.038 263.91 121.038 264.834ZM132.829 270.108C132.037 270.108 131.383 269.94 130.867 269.604C130.363 269.256 129.985 268.728 129.733 268.02C129.493 267.3 129.373 266.382 129.373 265.266C129.373 264.078 129.493 263.118 129.733 262.386C129.973 261.642 130.357 261.102 130.885 260.766C131.413 260.43 132.121 260.262 133.009 260.262C133.549 260.262 134.077 260.322 134.593 260.442C135.109 260.562 135.565 260.694 135.961 260.838V256.266H137.383V270H136.231L135.961 269.028C135.781 269.184 135.511 269.346 135.151 269.514C134.803 269.682 134.419 269.826 133.999 269.946C133.591 270.054 133.201 270.108 132.829 270.108ZM133.243 268.938C133.795 268.938 134.293 268.854 134.737 268.686C135.193 268.506 135.601 268.32 135.961 268.128V261.846C135.529 261.714 135.115 261.606 134.719 261.522C134.323 261.426 133.879 261.378 133.387 261.378C132.775 261.378 132.277 261.492 131.893 261.72C131.509 261.948 131.227 262.344 131.047 262.908C130.879 263.46 130.795 264.228 130.795 265.212C130.795 266.1 130.873 266.82 131.029 267.372C131.197 267.924 131.461 268.326 131.821 268.578C132.181 268.818 132.655 268.938 133.243 268.938Z" fill="#2B2B2B"/>
<line x1="64.6361" y1="147.975" x2="93.6361" y2="168.975" stroke="#8FE281" stroke-width="5"/>
<line x1="91.2818" y1="170.361" x2="137.282" y2="117.361" stroke="#8FE281" stroke-width="5"/>
</svg>
